# xmcd
#
# Track frame offsets: 
#        150
#        13725
#        38123
#        65322
#        80020
#        100560
#        115597
#        125580
#        150108
#        164813
#        179930
#        194471
#        210058
#        222814
#
# Disc length: 3340 seconds
#
# Revision: 0
# Processed by: cddbd v1.5.2PL0 Copyright (c) Steve Scherf et al.
# Submitted via: ExactAudioCopy v0.99pb5
#
DISCID=b70d0a0e
DTITLE=The New Mastersounds - 102%
DYEAR=2006
DGENRE=R&B Funk
TTITLE0=102%
TTITLE1=Witness
TTITLE2=Carrot Juice
TTITLE3=Thirty Three
TTITLE4=Colorado Sun
TTITLE5=Give Me A Minute
TTITLE6=Rope-A-Dope
TTITLE7=Hey Fela
TTITLE8=Bus Stop No 5
TTITLE9=Return To Gijon
TTITLE10=Forgiveness
TTITLE11=Talk Is Cheap
TTITLE12=L.A. Root Down
TTITLE13=Paranoid
EXTD=
EXTT0=
EXTT1=
EXTT2=
EXTT3=
EXTT4=
EXTT5=
EXTT6=
EXTT7=
EXTT8=
EXTT9=
EXTT10=
EXTT11=
EXTT12=
EXTT13=
PLAYORDER=
